Coordinates
version=1
nRows=12
nColumns=24
inDegrees=yes

Units are S.I. units (second, meters, Newtons, ...)
Angles are in degrees.

endheader
time	pelvis_tilt	pelvis_list	pelvis_rotation	pelvis_tx	pelvis_ty	pelvis_tz	hip_flexion_r	hip_adduction_r	hip_rotation_r	knee_angle_r	ankle_angle_r	subtalar_angle_r	mtp_angle_r	hip_flexion_l	hip_adduction_l	hip_rotation_l	knee_angle_l	ankle_angle_l	subtalar_angle_l	mtp_angle_l	lumbar_extension	lumbar_bending	lumbar_rotation
      1.10816667	     -0.05290546	      1.99335871	      0.27622865	     -0.11104322	      0.97469669	      0.31406057	    -19.42003603	      0.63685374	     -3.88363322	     -3.55087079	     20.03139309	     -1.12290168	      0.90828623	     22.72072251	      2.96428265	      2.24016804	      3.31576081	     -5.00161651	     -9.03679254	      1.69890372	    -13.70519838	      2.27413785	      8.60044078
      1.11233333	     -0.02043513	      2.18675835	      0.28516681	     -0.10516334	      0.97402580	      0.31348351	    -19.54283844	      0.37093176	     -4.15707124	     -4.15651800	     20.25164437	     -0.74412215	      0.99713335	     22.73460602	      3.25506052	      2.39158607	      2.95290566	     -5.24568788	     -9.29185911	      1.79249645	    -13.72986372	      2.03260245	      8.57469750
      1.11650000	      0.00722873	      2.39483421	      0.29200962	     -0.09925711	      0.97339687	      0.31289698	    -19.64094305	      0.08457581	     -4.42909092	     -4.80554375	     20.44636739	     -0.37549571	      1.10369938	     22.76172816	      3.56139052	      2.55150138	      2.51340327	     -5.54484260	     -9.59342534	      1.89590585	    -13.74919515	      1.77577400	      8.54612983
      1.12066667	      0.02975188	      2.61734051	      0.30168033	     -0.09331722	      0.97280668	      0.31230094	    -19.72541979	     -0.21740884	     -4.68104200	     -5.47512307	     20.61807396	     -0.03720891	      1.21615971	     22.80933797	      3.88456455	      2.68750598	      1.99117481	     -5.91289635	     -9.93117891	      1.99343182	    -13.75526465	      1.50014310	      8.50250605
      1.12483333	      0.04641627	      2.84810532	      0.31542414	     -0.08735992	      0.97225531	      0.31168203	    -19.78508647	     -0.53083295	     -4.93082571	     -6.18498030	     20.75271614	      0.28207968	      1.34748337	     22.87191762	      4.21908265	      2.84005802	      1.40429283	     -6.31716265	    -10.30725198	      2.09591932	    -13.75657163	      1.21797359	      8.45512629
      1.12900000	      0.05842238	      3.08575173	      0.33077890	     -0.08137448	      0.97174168	      0.31105223	    -19.82718653	     -0.85278409	     -5.16521144	     -6.92275313	     20.84885728	      0.56483722	      1.49760392	     22.94966346	      4.56195257	      2.98276214	      0.75579169	     -6.76938780	    -10.72267945	      2.20012884	    -13.74981030	      0.92688305	      8.39653674
      1.13316667	      0.06254858	      3.32976829	      0.34708142	     -0.07536362	      0.97126595	      0.31041731	    -19.84972202	     -1.18224596	     -5.37795437	     -7.68374588	     20.90231485	      0.80382822	      1.66567296	     23.04618516	      4.91180232	      3.11893487	      0.05012309	     -7.25149609	    -11.15926595	      2.30171659	    -13.73117238	      0.62592286	      8.33105139
      1.13733333	      0.05735100	      3.57997015	      0.36903958	     -0.06933830	      0.97082228	      0.30975899	    -19.84336563	     -1.51931289	     -5.58105814	     -8.48566529	     20.91775401	      1.02505632	      1.86300540	     23.16225035	      5.27129230	      3.25074166	     -0.70381534	     -7.76437563	    -11.63760562	      2.40405131	    -13.70224383	      0.32338906	      8.26053068
      1.14150000	      0.04991125	      3.83480633	      0.39185929	     -0.06329054	      0.97042160	      0.30909388	    -19.82278247	     -1.86186790	     -5.76599399	     -9.31130056	     20.88217017	      1.20384990	      2.09734157	     23.28924598	      5.63588216	      3.37632990	     -1.50234703	     -8.28282762	    -12.13054292	      2.50536405	    -13.67444103	      0.01353525	      8.18086399
      1.14566667	      0.03863431	      4.08910838	      0.41794438	     -0.05722363	      0.97006682	      0.30842174	    -19.78644142	     -2.20175574	     -5.91842434	    -10.15865408	     20.78904177	      1.32153530	      2.35435910	     23.42794986	      6.00091621	      3.48509166	     -2.33768540	     -8.79924458	    -12.62932428	      2.59486504	    -13.62914464	     -0.29720300	      8.09561590
      1.14983333	      0.01870824	      4.34361877	      0.44402705	     -0.05114448	      0.96974800	      0.30773434	    -19.72320642	     -2.54385361	     -6.05100424	    -11.03814535	     20.64429165	      1.40547206	      2.64558619	     23.58364216	      6.36704421	      3.58723937	     -3.20803376	     -9.30457157	    -13.13788054	      2.67334040	    -13.58433487	     -0.60207937	      8.00674836
      1.15400000	     -0.00854267	      4.59605096	      0.47040215	     -0.04504833	      0.96947060	      0.30704651	    -19.63400456	     -2.88308721	     -6.16069912	    -11.95072103	     20.44000890	      1.44293970	      2.99437281	     23.75022372	      6.73065998	      3.68876112	     -4.10288409	     -9.78265621	    -13.66268669	      2.74309793	    -13.52411099	     -0.90860705	      7.91472978
